<?xml version="1.0" encoding="UTF-8"?>
<!DOCTYPE svg PUBLIC "-//W3C//DTD SVG 1.1//EN" "http://www.w3.org/Graphics/SVG/1.1/DTD/svg11.dtd">
<svg xmlns="http://www.w3.org/2000/svg" version="1.1" width="2667px" height="2667px" style="shape-rendering:geometricPrecision; text-rendering:geometricPrecision; image-rendering:optimizeQuality; fill-rule:evenodd; clip-rule:evenodd" xmlns:xlink="http://www.w3.org/1999/xlink">
<g><path style="opacity:1" fill="#fefefe" d="M -0.5,-0.5 C 888.5,-0.5 1777.5,-0.5 2666.5,-0.5C 2666.5,888.5 2666.5,1777.5 2666.5,2666.5C 1777.5,2666.5 888.5,2666.5 -0.5,2666.5C -0.5,1777.5 -0.5,888.5 -0.5,-0.5 Z"/></g>
<g><path style="opacity:1" fill="#cf1827" d="M 2385.5,226.5 C 2424.45,220.352 2445.95,236.685 2450,275.5C 2451.48,295.145 2451.81,314.812 2451,334.5C 2421.7,562.079 2351.36,776.079 2240,976.5C 2149.5,1137.13 2041.17,1284.8 1915,1419.5C 1855.08,1483.09 1792.91,1544.26 1728.5,1603C 1664.79,1659.87 1601.46,1717.2 1538.5,1775C 1524.36,1787.77 1515.86,1803.6 1513,1822.5C 1505.05,1928.17 1497.05,2033.84 1489,2139.5C 1487.55,2152.82 1486.21,2166.15 1485,2179.5C 1479.62,2194.56 1470.12,2206.39 1456.5,2215C 1444.95,2220.61 1433.29,2225.94 1421.5,2231C 1262.16,2295.84 1103.16,2361.5 944.5,2428C 924.406,2436.16 903.739,2438.16 882.5,2434C 869.931,2429.76 861.764,2421.26 858,2408.5C 855.335,2397.88 855.002,2387.21 857,2376.5C 863.884,2355.4 871.884,2334.73 881,2314.5C 905.215,2262.07 928.882,2209.4 952,2156.5C 955.993,2144.73 954.993,2133.4 949,2122.5C 816.833,1989.67 684.667,1856.83 552.5,1724C 542.484,1717.08 532.151,1716.75 521.5,1723C 447.306,1757.43 372.639,1790.76 297.5,1823C 285.67,1826.64 274.003,1826.31 262.5,1822C 254.161,1817.33 248.328,1810.49 245,1801.5C 240.609,1790.55 238.942,1779.22 240,1767.5C 267.422,1692.57 296.422,1618.24 327,1544.5C 370.035,1443.06 411.702,1341.06 452,1238.5C 461.979,1208.18 482.812,1191.68 514.5,1189C 614.152,1182.76 713.819,1176.76 813.5,1171C 827.518,1169.86 841.518,1168.52 855.5,1167C 873.486,1163.93 888.652,1155.76 901,1142.5C 963.365,1076.07 1025.03,1009.07 1086,941.5C 1153.11,868.394 1222.94,797.894 1295.5,730C 1421.84,613.997 1560.17,514.663 1710.5,432C 1879.9,340.467 2059.57,278.801 2249.5,247C 2294.9,239.662 2340.23,232.828 2385.5,226.5 Z"/></g>
<g><path style="opacity:1" fill="#fefefe" d="M 2348.5,328.5 C 2350.6,328.201 2352.6,328.534 2354.5,329.5C 2345.1,383.209 2335.27,436.876 2325,490.5C 2295.06,624.025 2249.06,751.691 2187,873.5C 2104.75,1025.03 2008.41,1166.69 1898,1298.5C 1840.35,1363.48 1779.85,1425.98 1716.5,1486C 1573.28,1621.58 1425.62,1751.58 1273.5,1876C 1193.65,1940.19 1111.81,2001.69 1028,2060.5C 891.805,1922.64 755.971,1784.47 620.5,1646C 711.375,1520.1 807.208,1397.94 908,1279.5C 994.656,1178.28 1083.66,1078.95 1175,981.5C 1255.82,895.335 1340.99,814.168 1430.5,738C 1553.46,637.3 1686.46,551.3 1829.5,480C 1911.05,440.483 1995.72,409.483 2083.5,387C 2159.83,368.5 2236.17,350.166 2312.5,332C 2324.65,330.799 2336.65,329.633 2348.5,328.5 Z"/></g>
<g><path style="opacity:1" fill="#cf1927" d="M 1520.5,895.5 C 1588.21,890.021 1648.54,908.188 1701.5,950C 1751.75,994.003 1779.58,1049.5 1785,1116.5C 1791.63,1208.71 1758.13,1282.21 1684.5,1337C 1594.79,1394.67 1503.45,1397.33 1410.5,1345C 1341.95,1301.11 1304.78,1238.28 1299,1156.5C 1294.78,1090.48 1312.78,1031.48 1353,979.5C 1397.42,929.04 1453.25,901.04 1520.5,895.5 Z"/></g>
<g><path style="opacity:1" fill="#fefefe" d="M 1527.5,990.5 C 1591.23,984.618 1639.73,1008.62 1673,1062.5C 1696.54,1109.29 1697.54,1156.63 1676,1204.5C 1649.9,1253.49 1609.07,1280.99 1553.5,1287C 1489.87,1289.44 1442.04,1263.27 1410,1208.5C 1391.24,1172.43 1387.24,1134.76 1398,1095.5C 1413.88,1048.62 1445.05,1016.45 1491.5,999C 1503.47,995.445 1515.47,992.611 1527.5,990.5 Z"/></g>
<g><path style="opacity:1" fill="#fefefe" d="M 752.5,1268.5 C 765.504,1268.33 778.504,1268.5 791.5,1269C 752.385,1322.45 712.885,1375.62 673,1428.5C 628.55,1486.3 579.717,1540.47 526.5,1591C 500.421,1615.08 472.088,1636.08 441.5,1654C 422.085,1665.3 401.418,1673.14 379.5,1677.5C 388.963,1648.95 399.13,1620.61 410,1592.5C 449.333,1497.17 488.667,1401.83 528,1306.5C 533.8,1290.69 544.966,1281.53 561.5,1279C 625.402,1276.99 689.069,1273.49 752.5,1268.5 Z"/></g>
<g><path style="opacity:1" fill="#cf1927" d="M 521.5,1853.5 C 542.181,1851.59 558.347,1859.26 570,1876.5C 581.885,1894.34 581.218,1911.67 568,1928.5C 521.736,1970.08 484.402,2018.41 456,2073.5C 429.81,2126.74 407.144,2181.41 388,2237.5C 379.646,2261.71 371.146,2285.88 362.5,2310C 364.222,2314.22 366.555,2318.05 369.5,2321.5C 428.047,2294.39 486.714,2267.56 545.5,2241C 587.425,2221.58 629.092,2201.58 670.5,2181C 677.115,2176.72 683.448,2172.05 689.5,2167C 702.228,2153.6 715.562,2140.94 729.5,2129C 743.847,2117.83 759.847,2109.83 777.5,2105C 786.321,2103.11 794.321,2104.78 801.5,2110C 810.618,2117.75 817.118,2127.25 821,2138.5C 822.221,2148.08 821.221,2157.42 818,2166.5C 811.895,2180.39 803.561,2192.72 793,2203.5C 751.9,2245.98 704.4,2279.48 650.5,2304C 534.705,2354.39 417.038,2400.06 297.5,2441C 282.211,2443.76 267.211,2442.76 252.5,2438C 239.139,2430.28 233.139,2418.61 234.5,2403C 234.245,2395.7 235.078,2388.53 237,2381.5C 263.393,2312.99 289.393,2244.32 315,2175.5C 332.08,2131.93 349.747,2088.59 368,2045.5C 376.967,2026.23 386.967,2007.56 398,1989.5C 419.173,1957.82 440.84,1926.48 463,1895.5C 479.903,1877.65 499.403,1863.65 521.5,1853.5 Z"/></g>
<g><path style="opacity:1" fill="#fefefe" d="M 1408.5,1887.5 C 1409.5,1887.5 1410.5,1887.5 1411.5,1887.5C 1407.76,1967.2 1403.26,2046.87 1398,2126.5C 1397.03,2133.27 1393.87,2138.77 1388.5,2143C 1259.66,2196.89 1129.99,2248.73 999.5,2298.5C 999.167,2298.17 998.833,2297.83 998.5,2297.5C 1003.61,2287.62 1008.44,2277.62 1013,2267.5C 1024.01,2235.81 1037.34,2205.14 1053,2175.5C 1062.95,2159.21 1075.45,2145.04 1090.5,2133C 1125.52,2107.49 1160.19,2081.49 1194.5,2055C 1265.72,1998.91 1337.05,1943.07 1408.5,1887.5 Z"/></g>
</svg>
