<?xml version="1.0" encoding="UTF-8"?>
<!DOCTYPE svg PUBLIC "-//W3C//DTD SVG 1.1//EN" "http://www.w3.org/Graphics/SVG/1.1/DTD/svg11.dtd">
<svg xmlns="http://www.w3.org/2000/svg" version="1.1" width="1392px" height="1010px" style="shape-rendering:geometricPrecision; text-rendering:geometricPrecision; image-rendering:optimizeQuality; fill-rule:evenodd; clip-rule:evenodd" xmlns:xlink="http://www.w3.org/1999/xlink">
<g><path style="opacity:1" fill="#fefefe" d="M -0.5,-0.5 C 463.5,-0.5 927.5,-0.5 1391.5,-0.5C 1391.5,336.167 1391.5,672.833 1391.5,1009.5C 927.5,1009.5 463.5,1009.5 -0.5,1009.5C -0.5,672.833 -0.5,336.167 -0.5,-0.5 Z"/></g>
<g><path style="opacity:1" fill="#cc1b27" d="M 48.5,69.5 C 87.5014,69.3333 126.501,69.5 165.5,70C 207.496,76.9889 234.996,100.822 248,141.5C 256.614,175.468 256.614,209.468 248,243.5C 235.549,282.957 209.049,306.457 168.5,314C 137.863,315.436 107.196,315.936 76.5,315.5C 75.5015,352.996 75.1682,390.663 75.5,428.5C 66.5,428.5 57.5,428.5 48.5,428.5C 48.5,308.833 48.5,189.167 48.5,69.5 Z"/></g>
<g><path style="opacity:1" fill="#fefdfd" d="M 76.5,101.5 C 104.189,101.113 131.856,101.613 159.5,103C 195.145,107.976 216.645,128.142 224,163.5C 228.833,189.438 226.833,214.771 218,239.5C 206.605,263.96 187.439,277.794 160.5,281C 132.169,281.5 103.835,281.667 75.5,281.5C 75.1708,221.429 75.5041,161.429 76.5,101.5 Z"/></g>
<g><path style="opacity:1" fill="#cc1c28" d="M 451.5,247.5 C 451.5,307.833 451.5,368.167 451.5,428.5C 443.167,428.5 434.833,428.5 426.5,428.5C 426.667,415.163 426.5,401.829 426,388.5C 412.419,417.061 389.753,431.394 358,431.5C 320.475,430.648 297.142,411.981 288,375.5C 282.886,351.41 285.886,328.41 297,306.5C 310.734,286.38 329.901,276.38 354.5,276.5C 378.167,276.5 401.833,276.5 425.5,276.5C 425.827,266.985 425.494,257.652 424.5,248.5C 424.599,226.868 416.265,209.368 399.5,196C 379.848,186.68 359.848,186.014 339.5,194C 325.896,199.634 314.23,207.967 304.5,219C 303.668,219.688 303.002,219.521 302.5,218.5C 298.556,210.279 294.889,201.946 291.5,193.5C 294.243,189.25 297.576,185.417 301.5,182C 332.937,156.42 367.937,150.087 406.5,163C 427.747,173.931 441.247,191.097 447,214.5C 449.606,225.362 451.106,236.362 451.5,247.5 Z"/></g>
<g><path style="opacity:1" fill="#cc1d28" d="M 801.5,156.5 C 833.48,154.079 859.314,165.412 879,190.5C 895.762,214.109 905.429,240.442 908,269.5C 908.5,281.495 908.667,293.495 908.5,305.5C 853.5,305.5 798.5,305.5 743.5,305.5C 743.76,333.325 752.926,357.658 771,378.5C 789.711,396.62 811.877,402.787 837.5,397C 846.529,394.33 854.863,390.33 862.5,385C 869.413,378.592 875.746,371.758 881.5,364.5C 886.86,371.874 891.86,379.541 896.5,387.5C 875.368,420.729 845.035,435.229 805.5,431C 774.385,424.55 751.218,407.384 736,379.5C 717.659,342.114 711.659,302.781 718,261.5C 722.297,227.404 736.797,198.571 761.5,175C 773.265,165.282 786.598,159.115 801.5,156.5 Z"/></g>
<g><path style="opacity:1" fill="#cc1c28" d="M 1285.5,245.5 C 1285.5,306.5 1285.5,367.5 1285.5,428.5C 1277.17,428.5 1268.83,428.5 1260.5,428.5C 1260.67,415.163 1260.5,401.829 1260,388.5C 1241.73,423.73 1212.89,437.563 1173.5,430C 1142.76,420.916 1125.26,400.416 1121,368.5C 1117.98,347.517 1120.98,327.517 1130,308.5C 1143.42,287.036 1162.92,276.369 1188.5,276.5C 1212.17,276.5 1235.83,276.5 1259.5,276.5C 1259.83,266.652 1259.49,256.986 1258.5,247.5C 1255.82,205.315 1233.49,185.815 1191.5,189C 1170.39,193.05 1152.73,203.05 1138.5,219C 1137.67,219.688 1137,219.521 1136.5,218.5C 1132.08,209.73 1128.58,200.73 1126,191.5C 1158.34,158.873 1196.51,149.373 1240.5,163C 1257.85,171.346 1270.01,184.513 1277,202.5C 1281.98,216.402 1284.82,230.735 1285.5,245.5 Z"/></g>
<g><path style="opacity:1" fill="#cc1c28" d="M 550.5,308.5 C 549.501,348.33 549.168,388.33 549.5,428.5C 540.833,428.5 532.167,428.5 523.5,428.5C 523.5,338.5 523.5,248.5 523.5,158.5C 532.5,158.5 541.5,158.5 550.5,158.5C 550.5,198.167 550.5,237.833 550.5,277.5C 565.504,277.667 580.504,277.5 595.5,277C 618.699,237.963 641.699,198.797 664.5,159.5C 674.483,158.334 684.483,158.168 694.5,159C 668.626,202.583 642.626,246.083 616.5,289.5C 644.374,336.083 672.374,382.583 700.5,429C 689.59,429.82 678.757,429.653 668,428.5C 643.708,388.75 619.541,348.917 595.5,309C 580.504,308.5 565.504,308.333 550.5,308.5 Z"/></g>
<g><path style="opacity:1" fill="#cc1a27" d="M 1024.5,191.5 C 1023.5,270.332 1023.17,349.332 1023.5,428.5C 1014.83,428.5 1006.17,428.5 997.5,428.5C 997.833,349.332 997.499,270.332 996.5,191.5C 972.006,190.502 947.339,190.169 922.5,190.5C 922.5,179.833 922.5,169.167 922.5,158.5C 981.167,158.5 1039.83,158.5 1098.5,158.5C 1098.5,169.167 1098.5,179.833 1098.5,190.5C 1073.66,190.169 1048.99,190.502 1024.5,191.5 Z"/></g>
<g><path style="opacity:1" fill="#fefefe" d="M 882.5,273.5 C 882.5,274.833 882.5,276.167 882.5,277.5C 836.167,277.5 789.833,277.5 743.5,277.5C 743.606,249.368 753.273,224.868 772.5,204C 790.677,187.916 811.343,183.916 834.5,192C 853.931,201.771 867.431,216.938 875,237.5C 879.113,249.179 881.613,261.179 882.5,273.5 Z"/></g>
<g><path style="opacity:1" fill="#d9545e" d="M 1285.5,245.5 C 1286.5,306.664 1286.83,367.998 1286.5,429.5C 1277.65,429.826 1268.98,429.493 1260.5,428.5C 1268.83,428.5 1277.17,428.5 1285.5,428.5C 1285.5,367.5 1285.5,306.5 1285.5,245.5 Z"/></g>
<g><path style="opacity:1" fill="#d9545e" d="M 451.5,247.5 C 452.499,307.998 452.832,368.664 452.5,429.5C 443.651,429.826 434.984,429.493 426.5,428.5C 434.833,428.5 443.167,428.5 451.5,428.5C 451.5,368.167 451.5,307.833 451.5,247.5 Z"/></g>
<g><path style="opacity:1" fill="#f1c3c6" d="M 424.5,248.5 C 425.494,257.652 425.827,266.985 425.5,276.5C 401.833,276.5 378.167,276.5 354.5,276.5C 377.661,275.502 400.994,275.169 424.5,275.5C 424.5,266.5 424.5,257.5 424.5,248.5 Z"/></g>
<g><path style="opacity:1" fill="#f1c4c7" d="M 1258.5,247.5 C 1259.49,256.986 1259.83,266.652 1259.5,276.5C 1235.83,276.5 1212.17,276.5 1188.5,276.5C 1211.66,275.502 1234.99,275.169 1258.5,275.5C 1258.5,266.167 1258.5,256.833 1258.5,247.5 Z"/></g>
<g><path style="opacity:1" fill="#d9545e" d="M 882.5,273.5 C 883.451,274.919 883.784,276.585 883.5,278.5C 836.664,278.832 789.997,278.499 743.5,277.5C 789.833,277.5 836.167,277.5 882.5,277.5C 882.5,276.167 882.5,274.833 882.5,273.5 Z"/></g>
<g><path style="opacity:1" fill="#f1c3c6" d="M 353.5,304.5 C 377.328,303.502 401.328,303.169 425.5,303.5C 425.829,318.676 425.496,333.676 424.5,348.5C 424.5,333.833 424.5,319.167 424.5,304.5C 400.833,304.5 377.167,304.5 353.5,304.5 Z"/></g>
<g><path style="opacity:1" fill="#f1c3c6" d="M 1187.5,304.5 C 1211.33,303.502 1235.33,303.169 1259.5,303.5C 1259.83,319.009 1259.5,334.342 1258.5,349.5C 1258.5,334.5 1258.5,319.5 1258.5,304.5C 1234.83,304.5 1211.17,304.5 1187.5,304.5 Z"/></g>
<g><path style="opacity:1" fill="#fefefe" d="M 353.5,304.5 C 377.167,304.5 400.833,304.5 424.5,304.5C 424.5,319.167 424.5,333.833 424.5,348.5C 419.053,373.112 404.72,390.278 381.5,400C 359.152,407.035 339.652,402.535 323,386.5C 312.785,370.882 309.785,353.882 314,335.5C 319.924,316.088 333.091,305.755 353.5,304.5 Z"/></g>
<g><path style="opacity:1" fill="#fefefe" d="M 1187.5,304.5 C 1211.17,304.5 1234.83,304.5 1258.5,304.5C 1258.5,319.5 1258.5,334.5 1258.5,349.5C 1252.89,371.241 1240.22,387.408 1220.5,398C 1201.99,404.908 1183.99,403.908 1166.5,395C 1154.36,385.959 1147.86,373.792 1147,358.5C 1144.02,339.887 1149.52,324.387 1163.5,312C 1170.8,307.178 1178.8,304.678 1187.5,304.5 Z"/></g>
<g><path style="opacity:1" fill="#d9535d" d="M 550.5,308.5 C 550.5,348.833 550.5,389.167 550.5,429.5C 541.318,429.827 532.318,429.493 523.5,428.5C 532.167,428.5 540.833,428.5 549.5,428.5C 549.168,388.33 549.501,348.33 550.5,308.5 Z"/></g>
<g><path style="opacity:1" fill="#e1757b" d="M 48.5,69.5 C 48.5,189.167 48.5,308.833 48.5,428.5C 57.5,428.5 66.5,428.5 75.5,428.5C 75.1682,390.663 75.5015,352.996 76.5,315.5C 76.5,353.5 76.5,391.5 76.5,429.5C 66.8333,429.5 57.1667,429.5 47.5,429.5C 47.1671,309.332 47.5005,189.332 48.5,69.5 Z"/></g>
<g><path style="opacity:1" fill="#e2797f" d="M 996.5,191.5 C 997.499,270.332 997.833,349.332 997.5,428.5C 1006.17,428.5 1014.83,428.5 1023.5,428.5C 1023.17,349.332 1023.5,270.332 1024.5,191.5C 1024.5,270.833 1024.5,350.167 1024.5,429.5C 1015.17,429.5 1005.83,429.5 996.5,429.5C 996.5,350.167 996.5,270.833 996.5,191.5 Z"/></g>
<g><path style="opacity:1" fill="#cc1e29" d="M 36.5,489.5 C 455.833,489.5 875.167,489.5 1294.5,489.5C 1294.5,496.5 1294.5,503.5 1294.5,510.5C 875.167,510.5 455.833,510.5 36.5,510.5C 36.5,503.5 36.5,496.5 36.5,489.5 Z"/></g>
<g><path style="opacity:1" fill="#cc1f29" d="M 63.5,611.5 C 76.1982,609.761 84.0315,615.095 87,627.5C 87.6667,637.5 87.6667,647.5 87,657.5C 86.5043,670.164 80.0043,676.497 67.5,676.5C 63.8004,676.657 60.3004,675.991 57,674.5C 56.6667,683.167 56.3333,691.833 56,700.5C 53.3333,703.167 50.6667,703.167 48,700.5C 47.6667,674.833 47.3333,649.167 47,623.5C 43.4373,615.232 45.6039,612.898 53.5,616.5C 56.9373,614.814 60.2706,613.147 63.5,611.5 Z"/></g>
<g><path style="opacity:1" fill="#cd222c" d="M 111.5,611.5 C 131.907,610.754 139.741,620.421 135,640.5C 133.073,645.428 129.573,648.594 124.5,650C 118.78,650.788 113.114,650.621 107.5,649.5C 106.34,653.459 106.173,657.459 107,661.5C 109.346,666.257 113.179,668.257 118.5,667.5C 122.923,667.537 127.09,666.537 131,664.5C 135.632,665.658 136.632,668.324 134,672.5C 131.696,674.068 129.196,675.235 126.5,676C 120.056,676.915 113.723,676.581 107.5,675C 101.996,672.16 98.8293,667.66 98,661.5C 97.3333,649.5 97.3333,637.5 98,625.5C 100.352,618.65 104.852,613.983 111.5,611.5 Z"/></g>
<g><path style="opacity:1" fill="#cd232c" d="M 213.5,611.5 C 225.975,609.317 233.808,614.317 237,626.5C 237.667,637.167 237.667,647.833 237,658.5C 236.077,670.591 229.577,676.591 217.5,676.5C 213.8,676.657 210.3,675.991 207,674.5C 206.667,683.167 206.333,691.833 206,700.5C 203.333,703.167 200.667,703.167 198,700.5C 197.667,674.833 197.333,649.167 197,623.5C 193.518,614.981 195.851,612.648 204,616.5C 207.165,614.669 210.332,613.003 213.5,611.5 Z"/></g>
<g><path style="opacity:1" fill="#cd202a" d="M 151.5,611.5 C 153.993,611.329 155.826,612.329 157,614.5C 157.5,622.493 157.666,630.493 157.5,638.5C 160.119,638.768 162.619,638.435 165,637.5C 169.707,629.251 174.541,621.084 179.5,613C 181.5,612.333 183.5,612.333 185.5,613C 186.83,616.368 186.33,619.535 184,622.5C 179.302,629.701 174.802,637.035 170.5,644.5C 175.667,652.833 180.833,661.167 186,669.5C 187.502,675.327 185.336,677.494 179.5,676C 174.04,666.915 168.707,657.749 163.5,648.5C 161.604,647.534 159.604,647.201 157.5,647.5C 157.666,656.506 157.5,665.506 157,674.5C 154.333,677.167 151.667,677.167 149,674.5C 148.333,654.5 148.333,634.5 149,614.5C 150.045,613.627 150.878,612.627 151.5,611.5 Z"/></g>
<g><path style="opacity:1" fill="#cd242c" d="M 246.5,611.5 C 249.808,610.974 251.974,612.307 253,615.5C 257.333,630.833 261.667,646.167 266,661.5C 270.323,645.545 274.656,629.545 279,613.5C 283.48,610.25 285.98,611.417 286.5,617C 281.023,640.786 274.523,664.286 267,687.5C 264.084,695.252 258.584,699.919 250.5,701.5C 245.46,701.094 243.626,698.428 245,693.5C 255.388,691.775 260.888,685.608 261.5,675C 256.238,656.458 250.738,637.958 245,619.5C 244.109,616.502 244.609,613.836 246.5,611.5 Z"/></g>
<g><path style="opacity:1" fill="#cd202b" d="M 331.5,621.5 C 327.167,621.5 322.833,621.5 318.5,621.5C 318.5,638.833 318.5,656.167 318.5,673.5C 316.148,677.105 313.315,677.439 310,674.5C 309.5,656.836 309.333,639.17 309.5,621.5C 304.821,621.666 300.155,621.499 295.5,621C 293.987,618.084 294.32,615.418 296.5,613C 308.5,612.333 320.5,612.333 332.5,613C 335.447,616.343 335.113,619.176 331.5,621.5 Z"/></g>
<g><path style="opacity:1" fill="#cc1f29" d="M 379.5,673.5 C 379.667,659.163 379.5,644.829 379,630.5C 378.283,631.044 377.783,631.711 377.5,632.5C 369.679,646.806 361.846,661.14 354,675.5C 351.333,678.167 348.667,678.167 346,675.5C 345.333,654.833 345.333,634.167 346,613.5C 348.333,610.833 350.667,610.833 353,613.5C 353.333,628.167 353.667,642.833 354,657.5C 362.839,643.158 371.173,628.492 379,613.5C 381.747,610.966 384.413,610.966 387,613.5C 387.667,634.167 387.667,654.833 387,675.5C 383.482,678.496 380.982,677.829 379.5,673.5 Z"/></g>
<g><path style="opacity:1" fill="#ce262e" d="M 406.5,611.5 C 408.722,611.178 410.556,611.845 412,613.5C 412.5,621.827 412.666,630.16 412.5,638.5C 420.5,638.5 428.5,638.5 436.5,638.5C 436.334,630.493 436.5,622.493 437,614.5C 439.617,610.524 442.284,610.524 445,614.5C 445.667,634.5 445.667,654.5 445,674.5C 442.333,677.167 439.667,677.167 437,674.5C 436.5,665.506 436.334,656.506 436.5,647.5C 428.833,647.5 421.167,647.5 413.5,647.5C 413.666,656.173 413.5,664.84 413,673.5C 411.06,676.608 408.394,677.275 405,675.5C 404.333,654.833 404.333,634.167 405,613.5C 405.717,612.956 406.217,612.289 406.5,611.5 Z"/></g>
<g><path style="opacity:1" fill="#cd202b" d="M 463.5,612.5 C 473.172,612.334 482.839,612.5 492.5,613C 495.167,615.667 495.167,618.333 492.5,621C 485.174,621.5 477.841,621.666 470.5,621.5C 470.667,639.17 470.5,656.836 470,674.5C 467.333,677.167 464.667,677.167 462,674.5C 461.333,654.5 461.333,634.5 462,614.5C 462.717,613.956 463.217,613.289 463.5,612.5 Z"/></g>
<g><path style="opacity:1" fill="#fefdfd" d="M 62.5,620.5 C 69.8996,619.117 75.0663,621.784 78,628.5C 78.6667,638.167 78.6667,647.833 78,657.5C 78.0806,661.846 76.2473,665.013 72.5,667C 68.1667,667.667 63.8333,667.667 59.5,667C 58.5838,666.626 57.7504,666.126 57,665.5C 56.1672,651.488 56.3339,637.488 57.5,623.5C 59.3964,622.725 61.063,621.725 62.5,620.5 Z"/></g>
<g><path style="opacity:1" fill="#fef8f9" d="M 113.5,620.5 C 124.983,619.822 129.483,625.155 127,636.5C 125.74,639.428 123.573,641.261 120.5,642C 115.826,642.333 111.16,642.167 106.5,641.5C 106.334,636.489 106.501,631.489 107,626.5C 108.494,623.686 110.66,621.686 113.5,620.5 Z"/></g>
<g><path style="opacity:1" fill="#fefdfd" d="M 213.5,620.5 C 220.654,619.157 225.487,621.823 228,628.5C 228.667,638.833 228.667,649.167 228,659.5C 227.496,663.02 225.663,665.52 222.5,667C 217.143,667.957 211.976,667.457 207,665.5C 206.333,651.833 206.333,638.167 207,624.5C 209.013,622.752 211.18,621.418 213.5,620.5 Z"/></g>
<g><path style="opacity:1" fill="#f0bcbf" d="M 331.5,621.5 C 327.702,622.483 323.702,622.817 319.5,622.5C 319.83,639.675 319.497,656.675 318.5,673.5C 318.5,656.167 318.5,638.833 318.5,621.5C 322.833,621.5 327.167,621.5 331.5,621.5 Z"/></g>
<g><path style="opacity:1" fill="#e58b91" d="M 379.5,673.5 C 378.833,659.833 378.167,646.167 377.5,632.5C 377.783,631.711 378.283,631.044 379,630.5C 379.5,644.829 379.667,659.163 379.5,673.5 Z"/></g>
<g><path style="opacity:1" fill="#cd212b" d="M 111.5,762.5 C 121.302,760.432 129.469,763.099 136,770.5C 137.562,772.957 138.562,775.624 139,778.5C 139.917,790.891 139.584,803.224 138,815.5C 131.293,827.294 121.46,830.794 108.5,826C 102.673,822.842 99.1732,818.008 98,811.5C 97.3333,800.167 97.3333,788.833 98,777.5C 100.263,770.407 104.763,765.407 111.5,762.5 Z"/></g>
<g><path style="opacity:1" fill="#cf2a30" d="M 257.5,826.5 C 256.791,825.596 255.791,825.263 254.5,825.5C 254.5,833.833 254.5,842.167 254.5,850.5C 254.315,852.89 252.982,853.89 250.5,853.5C 248.626,853.61 247.126,852.944 246,851.5C 245.94,823.048 245.273,794.715 244,766.5C 247.039,765.034 249.872,765.367 252.5,767.5C 262.129,760.963 271.629,760.963 281,767.5C 283.637,771.072 285.303,775.072 286,779.5C 286.667,789.833 286.667,800.167 286,810.5C 282.469,825.985 272.969,831.318 257.5,826.5 Z"/></g>
<g><path style="opacity:1" fill="#cd212b" d="M 310.5,762.5 C 323.356,760.177 332.523,764.844 338,776.5C 338.667,788.5 338.667,800.5 338,812.5C 332.294,826.637 322.128,831.137 307.5,826C 301.673,822.842 298.173,818.008 297,811.5C 296.333,800.167 296.333,788.833 297,777.5C 299.263,770.407 303.763,765.407 310.5,762.5 Z"/></g>
<g><path style="opacity:1" fill="#cd242c" d="M 361.5,801.5 C 360.432,800.566 359.099,800.232 357.5,800.5C 357.187,804.042 357.521,807.375 358.5,810.5C 359.134,813.643 360.8,816.143 363.5,818C 369.426,819.11 375.092,818.444 380.5,816C 386,814.833 388.167,817 387,822.5C 384.531,824.652 381.698,826.152 378.5,827C 365.126,831.054 355.626,826.887 350,814.5C 349.333,801.5 349.333,788.5 350,775.5C 355.321,764.266 364.155,760.1 376.5,763C 387.262,768.568 391.096,777.401 388,789.5C 386.167,795.333 382.333,799.167 376.5,801C 371.511,801.499 366.511,801.666 361.5,801.5 Z"/></g>
<g><path style="opacity:1" fill="#ce262e" d="M 528.5,801.5 C 527.432,800.566 526.099,800.232 524.5,800.5C 524.187,804.042 524.521,807.375 525.5,810.5C 526.183,814.02 528.183,816.52 531.5,818C 537.097,819.091 542.43,818.424 547.5,816C 553,814.833 555.167,817 554,822.5C 541.391,831.437 529.724,830.437 519,819.5C 518,817.167 517,814.833 516,812.5C 515.333,801.5 515.333,790.5 516,779.5C 519.636,765.892 528.47,760.392 542.5,763C 553.877,767.731 558.044,776.231 555,788.5C 553.61,794.891 549.776,799.058 543.5,801C 538.511,801.499 533.511,801.666 528.5,801.5 Z"/></g>
<g><path style="opacity:1" fill="#cd232c" d="M 612.5,762.5 C 626.726,759.927 636.226,765.26 641,778.5C 641.861,790.21 641.527,801.877 640,813.5C 634.919,825.775 625.752,830.275 612.5,827C 605.165,824.33 600.665,819.163 599,811.5C 598.333,800.5 598.333,789.5 599,778.5C 600.95,770.888 605.45,765.555 612.5,762.5 Z"/></g>
<g><path style="opacity:1" fill="#cd232c" d="M 766.5,762.5 C 785.133,760.634 793.633,768.967 792,787.5C 790.906,794.862 786.739,799.362 779.5,801C 773.78,801.788 768.114,801.621 762.5,800.5C 759.179,815.013 764.846,820.846 779.5,818C 782.622,816.096 785.955,815.429 789.5,816C 791.325,817.466 791.825,819.299 791,821.5C 789.269,823.617 787.102,825.117 784.5,826C 775.806,828.555 767.473,827.888 759.5,824C 757.3,821.766 755.467,819.266 754,816.5C 752.409,803.223 752.076,789.89 753,776.5C 755.713,769.956 760.213,765.289 766.5,762.5 Z"/></g>
<g><path style="opacity:1" fill="#cd222b" d="M 875.5,762.5 C 884.02,761.05 891.52,763.05 898,768.5C 899,770.5 900,772.5 901,774.5C 902.264,788.779 902.931,803.112 903,817.5C 908.625,819.152 909.792,822.318 906.5,827C 900.944,828.778 897.11,826.945 895,821.5C 888.515,827.114 881.015,828.948 872.5,827C 867.6,825.098 864.433,821.598 863,816.5C 862.333,811.5 862.333,806.5 863,801.5C 866.49,792.88 872.99,788.88 882.5,789.5C 886.144,789.596 889.644,790.262 893,791.5C 895.229,773.393 887.896,767.727 871,774.5C 869.893,774.415 868.893,774.081 868,773.5C 867.289,771.101 867.456,768.768 868.5,766.5C 870.765,764.873 873.099,763.539 875.5,762.5 Z"/></g>
<g><path style="opacity:1" fill="#cd222c" d="M 1027.5,762.5 C 1038.39,760.358 1045.89,764.358 1050,774.5C 1051.61,787.096 1051.94,799.763 1051,812.5C 1048.69,822.977 1042.19,827.977 1031.5,827.5C 1027.8,827.657 1024.3,826.991 1021,825.5C 1020.67,834.167 1020.33,842.833 1020,851.5C 1017.28,854.07 1014.62,854.07 1012,851.5C 1011.67,826.167 1011.33,800.833 1011,775.5C 1006.65,767.027 1008.82,764.36 1017.5,767.5C 1020.93,765.787 1024.26,764.121 1027.5,762.5 Z"/></g>
<g><path style="opacity:1" fill="#ce272e" d="M 1075.5,762.5 C 1082.03,761.988 1088.36,762.822 1094.5,765C 1100.07,768.63 1103.24,773.797 1104,780.5C 1104.88,791.883 1104.55,803.217 1103,814.5C 1099.13,823.016 1092.47,827.683 1083,828.5C 1071.8,827.965 1064.8,822.298 1062,811.5C 1061.33,800.5 1061.33,789.5 1062,778.5C 1063.86,770.817 1068.36,765.484 1075.5,762.5 Z"/></g>
<g><path style="opacity:1" fill="#cd222c" d="M 1187.5,762.5 C 1194.88,761.689 1201.88,762.856 1208.5,766C 1211.84,769.521 1214.01,773.688 1215,778.5C 1215.5,791.829 1215.67,805.163 1215.5,818.5C 1221.64,819.026 1222.98,821.86 1219.5,827C 1213.94,828.778 1210.11,826.945 1208,821.5C 1199.92,827.996 1191.08,829.162 1181.5,825C 1179.64,823.442 1178.14,821.609 1177,819.5C 1171.92,794.75 1181.75,785.417 1206.5,791.5C 1208.04,772.873 1200.21,767.206 1183,774.5C 1179.23,772.765 1178.57,770.098 1181,766.5C 1183.31,765.267 1185.48,763.933 1187.5,762.5 Z"/></g>
<g><path style="opacity:1" fill="#ce282f" d="M 45.5,763.5 C 57.5046,763.333 69.5046,763.5 81.5,764C 82.3333,764.833 83.1667,765.667 84,766.5C 84.6667,785.833 84.6667,805.167 84,824.5C 82.3342,827.379 79.8342,828.212 76.5,827C 75.8095,825.933 75.3095,824.766 75,823.5C 74.5001,806.503 74.3334,789.503 74.5,772.5C 67.1667,772.5 59.8333,772.5 52.5,772.5C 52.6666,790.17 52.4999,807.836 52,825.5C 49.3333,828.167 46.6667,828.167 44,825.5C 43.3333,805.5 43.3333,785.5 44,765.5C 44.7172,764.956 45.2172,764.289 45.5,763.5 Z"/></g>
<g><path style="opacity:1" fill="#cf2930" d="M 165.5,762.5 C 172.675,761.831 179.175,763.498 185,767.5C 185.667,769.5 185.667,771.5 185,773.5C 181.297,774.912 177.797,774.412 174.5,772C 167.874,770.231 163.04,772.397 160,778.5C 159.042,790.596 159.375,802.596 161,814.5C 162.214,816.049 163.714,817.215 165.5,818C 171.327,819.139 176.827,818.305 182,815.5C 183.261,815.759 184.261,816.426 185,817.5C 185.758,819.769 185.591,821.936 184.5,824C 173.319,830.757 163.153,829.591 154,820.5C 152.073,817.052 150.739,813.385 150,809.5C 149.333,799.5 149.333,789.5 150,779.5C 152.256,771.081 157.423,765.415 165.5,762.5 Z"/></g>
<g><path style="opacity:1" fill="#cd202a" d="M 232.5,772.5 C 227.833,772.5 223.167,772.5 218.5,772.5C 218.5,789.833 218.5,807.167 218.5,824.5C 216.148,828.105 213.315,828.439 210,825.5C 209.5,807.836 209.333,790.17 209.5,772.5C 204.821,772.666 200.155,772.499 195.5,772C 194.398,769.599 194.231,767.099 195,764.5C 207.424,763.345 219.924,763.179 232.5,764C 235.086,766.874 235.086,769.707 232.5,772.5 Z"/></g>
<g><path style="opacity:1" fill="#cd1f2a" d="M 403.5,762.5 C 405.722,762.178 407.556,762.845 409,764.5C 409.182,773.078 409.682,781.578 410.5,790C 418.159,790.5 425.826,790.666 433.5,790.5C 433.334,782.16 433.5,773.827 434,765.5C 436.367,762.068 439.034,761.735 442,764.5C 442.821,785.21 442.655,805.877 441.5,826.5C 438.718,827.952 436.218,827.619 434,825.5C 433.5,816.506 433.334,807.506 433.5,798.5C 425.5,798.5 417.5,798.5 409.5,798.5C 409.666,807.839 409.5,817.173 409,826.5C 406.667,827.833 404.333,827.833 402,826.5C 401.333,805.833 401.333,785.167 402,764.5C 402.717,763.956 403.217,763.289 403.5,762.5 Z"/></g>
<g><path style="opacity:1" fill="#cc1e29" d="M 467.5,765.5 C 467.167,779.849 467.501,794.182 468.5,808.5C 469.107,808.376 469.44,808.043 469.5,807.5C 477.068,793.366 484.901,779.366 493,765.5C 496.048,761.518 499.048,761.518 502,765.5C 502.667,785.5 502.667,805.5 502,825.5C 499.383,829.476 496.716,829.476 494,825.5C 493.667,811.167 493.333,796.833 493,782.5C 484.667,797.167 476.333,811.833 468,826.5C 464.904,829.353 462.237,829.02 460,825.5C 459.333,805.167 459.333,784.833 460,764.5C 462.937,761.694 465.437,762.027 467.5,765.5 Z"/></g>
<g><path style="opacity:1" fill="#cc1b27" d="M 650.5,763.5 C 662.505,763.333 674.505,763.5 686.5,764C 688.68,766.418 689.013,769.084 687.5,772C 682.582,772.195 677.749,772.695 673,773.5C 672.826,791.407 672.326,809.24 671.5,827C 669.231,827.758 667.064,827.591 665,826.5C 664.667,808.833 664.333,791.167 664,773.5C 659.251,772.695 654.418,772.195 649.5,772C 648.041,768.929 648.374,766.096 650.5,763.5 Z"/></g>
<g><path style="opacity:1" fill="#ce252d" d="M 705.5,763.5 C 715.172,763.334 724.839,763.5 734.5,764C 735.308,764.308 735.975,764.808 736.5,765.5C 737.486,783.12 737.82,800.786 737.5,818.5C 740.044,818.104 742.211,818.771 744,820.5C 744.667,827.833 744.667,835.167 744,842.5C 741.034,845.265 738.367,844.932 736,841.5C 735.501,836.845 735.334,832.179 735.5,827.5C 723.167,827.5 710.833,827.5 698.5,827.5C 698.666,832.179 698.499,836.845 698,841.5C 695.633,844.932 692.966,845.265 690,842.5C 689.333,835.167 689.333,827.833 690,820.5C 691.916,819.072 694.083,818.072 696.5,817.5C 697.333,815.833 698.167,814.167 699,812.5C 700.997,796.908 702.33,781.242 703,765.5C 703.995,764.934 704.828,764.267 705.5,763.5 Z"/></g>
<g><path style="opacity:1" fill="#cf2b31" d="M 816.5,763.5 C 826.506,763.334 836.506,763.5 846.5,764C 847.333,764.833 848.167,765.667 849,766.5C 849.667,786.167 849.667,805.833 849,825.5C 846.847,827.444 844.347,827.944 841.5,827C 840.809,825.933 840.309,824.766 840,823.5C 839.5,806.503 839.333,789.503 839.5,772.5C 833.833,772.5 828.167,772.5 822.5,772.5C 821.334,786.15 820.168,799.817 819,813.5C 817.422,825.107 811.089,829.441 800,826.5C 797.785,820.214 799.951,817.381 806.5,818C 808.333,817.5 809.5,816.333 810,814.5C 811.689,799.537 813.023,784.537 814,769.5C 814.236,767.189 815.069,765.189 816.5,763.5 Z"/></g>
<g><path style="opacity:1" fill="#cc1e29" d="M 985.5,772.5 C 978.018,771.508 970.352,771.175 962.5,771.5C 962.5,789.167 962.5,806.833 962.5,824.5C 962.315,826.89 960.982,827.89 958.5,827.5C 956.076,827.852 954.576,826.852 954,824.5C 953.333,805.167 953.333,785.833 954,766.5C 954.833,765.667 955.667,764.833 956.5,764C 968.167,763.333 979.833,763.333 991.5,764C 992.308,764.308 992.975,764.808 993.5,765.5C 994.654,785.457 994.821,805.457 994,825.5C 991.333,828.167 988.667,828.167 986,825.5C 985.5,807.836 985.333,790.17 985.5,772.5 Z"/></g>
<g><path style="opacity:1" fill="#cd232c" d="M 1127.5,763.5 C 1137.51,763.334 1147.51,763.5 1157.5,764C 1158,764.5 1158.5,765 1159,765.5C 1159.5,783.164 1159.67,800.83 1159.5,818.5C 1162.36,818.055 1164.86,818.722 1167,820.5C 1167.67,827.5 1167.67,834.5 1167,841.5C 1165.42,844.553 1163.09,845.22 1160,843.5C 1158.6,838.292 1158.1,832.959 1158.5,827.5C 1145.83,827.5 1133.17,827.5 1120.5,827.5C 1120.67,832.511 1120.5,837.511 1120,842.5C 1116.99,845.25 1114.32,844.917 1112,841.5C 1111.33,834.5 1111.33,827.5 1112,820.5C 1113.83,818.926 1115.99,818.093 1118.5,818C 1119.89,816.829 1120.73,815.329 1121,813.5C 1123.77,798.982 1125.11,784.316 1125,769.5C 1125.24,767.189 1126.07,765.189 1127.5,763.5 Z"/></g>
<g><path style="opacity:1" fill="#cd212b" d="M 1248.5,789.5 C 1250.26,790.461 1252.26,790.795 1254.5,790.5C 1254.5,782.833 1254.5,775.167 1254.5,767.5C 1256.24,761.975 1259.07,761.308 1263,765.5C 1263.5,773.493 1263.67,781.493 1263.5,789.5C 1265.6,789.799 1267.6,789.466 1269.5,788.5C 1274.29,780.415 1278.96,772.248 1283.5,764C 1285.5,763.333 1287.5,763.333 1289.5,764C 1290.08,764.893 1290.41,765.893 1290.5,767C 1285.97,776.554 1281.31,786.054 1276.5,795.5C 1280.47,804.115 1284.97,812.449 1290,820.5C 1291.23,826.647 1288.89,828.647 1283,826.5C 1278,817.5 1273,808.5 1268,799.5C 1266.64,798.62 1265.14,798.286 1263.5,798.5C 1263.67,807.506 1263.5,816.506 1263,825.5C 1260.33,828.167 1257.67,828.167 1255,825.5C 1254.5,816.506 1254.33,807.506 1254.5,798.5C 1252.28,798.178 1250.44,798.845 1249,800.5C 1244.33,809.167 1239.67,817.833 1235,826.5C 1232.67,829.167 1230.33,829.167 1228,826.5C 1227.33,824.5 1227.33,822.5 1228,820.5C 1232.52,812.13 1237.02,803.796 1241.5,795.5C 1237.53,786.885 1233.03,778.551 1228,770.5C 1226.33,763.833 1228.67,761.833 1235,764.5C 1239.51,772.86 1244.01,781.194 1248.5,789.5 Z"/></g>
<g><path style="opacity:1" fill="#da5760" d="M 467.5,765.5 C 468.167,779.5 468.833,793.5 469.5,807.5C 469.44,808.043 469.107,808.376 468.5,808.5C 467.501,794.182 467.167,779.849 467.5,765.5 Z"/></g>
<g><path style="opacity:1" fill="#f0babd" d="M 1254.5,767.5 C 1254.5,775.167 1254.5,782.833 1254.5,790.5C 1252.26,790.795 1250.26,790.461 1248.5,789.5C 1250.17,789.5 1251.83,789.5 1253.5,789.5C 1253.18,781.981 1253.51,774.648 1254.5,767.5 Z"/></g>
<g><path style="opacity:1" fill="#fefcfd" d="M 113.5,771.5 C 120.738,770.07 126.238,772.404 130,778.5C 130.667,789.167 130.667,799.833 130,810.5C 126.916,817.955 121.416,820.455 113.5,818C 110.244,816.413 108.077,813.913 107,810.5C 106.333,800.167 106.333,789.833 107,779.5C 108.305,776.039 110.471,773.372 113.5,771.5 Z"/></g>
<g><path style="opacity:1" fill="#fefbfb" d="M 261.5,771.5 C 269.544,769.766 274.71,772.766 277,780.5C 277.667,790.167 277.667,799.833 277,809.5C 276.272,813.142 274.438,815.975 271.5,818C 267.167,818.667 262.833,818.667 258.5,818C 257.584,817.626 256.75,817.126 256,816.5C 255.806,803.301 255.306,790.134 254.5,777C 256.444,774.692 258.777,772.859 261.5,771.5 Z"/></g>
<g><path style="opacity:1" fill="#fefdfd" d="M 313.5,771.5 C 320.265,770.469 325.432,772.802 329,778.5C 329.667,789.167 329.667,799.833 329,810.5C 327.923,813.913 325.756,816.413 322.5,818C 314.079,820.541 308.579,817.708 306,809.5C 305.333,799.833 305.333,790.167 306,780.5C 306.923,776.086 309.423,773.086 313.5,771.5 Z"/></g>
<g><path style="opacity:1" fill="#fefbfb" d="M 364.5,771.5 C 376.489,770.323 381.322,775.656 379,787.5C 378.215,789.286 377.049,790.786 375.5,792C 369.843,792.499 364.176,792.666 358.5,792.5C 358.334,787.489 358.501,782.489 359,777.5C 360.36,774.977 362.193,772.977 364.5,771.5 Z"/></g>
<g><path style="opacity:1" fill="#fefafa" d="M 531.5,771.5 C 543.988,770.494 548.821,776.161 546,788.5C 544.833,789.667 543.667,790.833 542.5,792C 536.843,792.499 531.176,792.666 525.5,792.5C 525.334,787.489 525.501,782.489 526,777.5C 527.36,774.977 529.193,772.977 531.5,771.5 Z"/></g>
<g><path style="opacity:1" fill="#fef9f9" d="M 615.5,771.5 C 624.082,769.87 629.582,773.204 632,781.5C 632.667,790.5 632.667,799.5 632,808.5C 628.707,818.224 622.207,821.057 612.5,817C 610.106,815.048 608.606,812.548 608,809.5C 607.333,799.833 607.333,790.167 608,780.5C 609.113,776.234 611.613,773.234 615.5,771.5 Z"/></g>
<g><path style="opacity:1" fill="#fef9fa" d="M 768.5,771.5 C 779.97,770.136 784.804,775.136 783,786.5C 782.315,789.057 780.815,790.891 778.5,792C 772.843,792.499 767.176,792.666 761.5,792.5C 761.334,787.821 761.501,783.155 762,778.5C 763.694,775.642 765.861,773.309 768.5,771.5 Z"/></g>
<g><path style="opacity:1" fill="#fefdfd" d="M 1026.5,771.5 C 1033.94,770.125 1039.11,772.792 1042,779.5C 1042.67,789.833 1042.67,800.167 1042,810.5C 1041.39,813.548 1039.89,816.048 1037.5,818C 1032.83,818.667 1028.17,818.667 1023.5,818C 1022.58,817.626 1021.75,817.126 1021,816.5C 1020.17,802.488 1020.33,788.488 1021.5,774.5C 1023.4,773.725 1025.06,772.725 1026.5,771.5 Z"/></g>
<g><path style="opacity:1" fill="#fefbfb" d="M 1078.5,771.5 C 1084.9,770.465 1090.07,772.465 1094,777.5C 1094.67,788.833 1094.67,800.167 1094,811.5C 1093.17,815 1091,817.167 1087.5,818C 1078.51,820.595 1073.01,817.428 1071,808.5C 1070.33,799.167 1070.33,789.833 1071,780.5C 1072.11,776.234 1074.61,773.234 1078.5,771.5 Z"/></g>
<g><path style="opacity:1" fill="#fefdfd" d="M 710.5,772.5 C 716.5,772.5 722.5,772.5 728.5,772.5C 728.5,787.833 728.5,803.167 728.5,818.5C 720.804,818.831 713.138,818.497 705.5,817.5C 706.82,813.886 707.987,810.22 709,806.5C 710.259,795.203 710.759,783.869 710.5,772.5 Z"/></g>
<g><path style="opacity:1" fill="#efb8bb" d="M 985.5,772.5 C 978.167,772.5 970.833,772.5 963.5,772.5C 963.83,790.008 963.497,807.341 962.5,824.5C 962.5,806.833 962.5,789.167 962.5,771.5C 970.352,771.175 978.018,771.508 985.5,772.5 Z"/></g>
<g><path style="opacity:1" fill="#fdf5f5" d="M 1133.5,771.5 C 1139.43,771.192 1145.26,771.525 1151,772.5C 1151.5,787.83 1151.67,803.163 1151.5,818.5C 1143.49,818.666 1135.49,818.5 1127.5,818C 1130,813.497 1131.5,808.664 1132,803.5C 1132.43,792.825 1132.93,782.159 1133.5,771.5 Z"/></g>
<g><path style="opacity:1" fill="#f0bcbf" d="M 232.5,772.5 C 228.366,773.485 224.032,773.818 219.5,773.5C 219.83,790.675 219.497,807.675 218.5,824.5C 218.5,807.167 218.5,789.833 218.5,772.5C 223.167,772.5 227.833,772.5 232.5,772.5 Z"/></g>
<g><path style="opacity:1" fill="#fefbfb" d="M 876.5,798.5 C 881.913,798.229 887.246,798.729 892.5,800C 896.24,814.598 890.573,820.598 875.5,818C 871.32,813.071 870.487,807.571 873,801.5C 874.145,800.364 875.312,799.364 876.5,798.5 Z"/></g>
<g><path style="opacity:1" fill="#fefafa" d="M 1189.5,798.5 C 1195.2,798.025 1200.7,798.692 1206,800.5C 1209.78,812.202 1205.61,818.202 1193.5,818.5C 1189.67,819.17 1186.84,817.837 1185,814.5C 1184.33,810.833 1184.33,807.167 1185,803.5C 1186.02,801.313 1187.52,799.646 1189.5,798.5 Z"/></g>
<g><path style="opacity:1" fill="#e69095" d="M 361.5,801.5 C 360.5,801.5 359.5,801.5 358.5,801.5C 358.5,804.5 358.5,807.5 358.5,810.5C 357.521,807.375 357.187,804.042 357.5,800.5C 359.099,800.232 360.432,800.566 361.5,801.5 Z"/></g>
<g><path style="opacity:1" fill="#e68f95" d="M 528.5,801.5 C 527.5,801.5 526.5,801.5 525.5,801.5C 525.5,804.5 525.5,807.5 525.5,810.5C 524.521,807.375 524.187,804.042 524.5,800.5C 526.099,800.232 527.432,800.566 528.5,801.5 Z"/></g>
<g><path style="opacity:1" fill="#e58c92" d="M 257.5,826.5 C 255.846,834.281 254.846,842.281 254.5,850.5C 254.5,842.167 254.5,833.833 254.5,825.5C 255.791,825.263 256.791,825.596 257.5,826.5 Z"/></g>
</svg>
