<?xml version="1.0" encoding="UTF-8"?> <svg xmlns="http://www.w3.org/2000/svg" width="34" height="34" viewBox="0 0 34 34" fill="none"> <path d="M34 17C34 26.3888 26.3888 34 17 34C7.61116 34 0 26.3888 0 17C0 7.61116 7.61116 0 17 0C26.3888 0 34 7.61116 34 17Z" fill="white"></path> <path d="M26.38 8.12493L5.12065 15.8635C3.66979 16.4136 3.67818 17.1776 4.85446 17.5183L10.3126 19.1255L22.9411 11.6043C23.5383 11.2613 24.0838 11.4458 23.6354 11.8216L13.4038 20.5381H13.4014L13.4038 20.5392L13.0273 25.85C13.5788 25.85 13.8223 25.6111 14.1316 25.3293L16.7827 22.8958L22.2972 26.7407C23.314 27.2693 24.0443 26.9977 24.2973 25.8522L27.9172 9.74803C28.2877 8.34564 27.3501 7.71067 26.38 8.12493Z" fill="#2A2A2A"></path> </svg> 